<svg width="564" height="564" viewBox="0 0 564 564" fill="none" xmlns="http://www.w3.org/2000/svg">
<path d="M553.231 256.831L307.031 10.6312C292.856 -3.54375 269.856 -3.54375 255.681 10.6312L204.556 61.7563L269.406 126.606C284.481 121.506 301.756 124.931 313.781 136.931C325.856 149.006 329.256 166.456 324.031 181.581L386.531 244.081C401.656 238.856 419.106 242.231 431.181 254.331C448.056 271.206 448.056 298.556 431.181 315.431C414.306 332.306 386.956 332.306 370.056 315.431C357.356 302.731 354.231 284.081 360.656 268.431L302.356 210.131V363.531C306.456 365.581 310.356 368.281 313.781 371.706C330.656 388.581 330.656 415.931 313.781 432.831C296.906 449.706 269.531 449.706 252.681 432.831C235.806 415.931 235.806 388.581 252.681 371.706C256.856 367.531 261.681 364.381 266.831 362.281V207.456C261.681 205.356 256.856 202.231 252.681 198.031C239.906 185.256 236.831 166.481 243.381 150.806L179.456 86.8563L10.6312 255.656C-3.54375 269.856 -3.54375 292.856 10.6312 307.031L256.856 553.231C271.031 567.406 294.006 567.406 308.206 553.231L553.256 308.181C567.431 294.006 567.431 270.981 553.256 256.806L553.231 256.831Z" fill="#3B82F6"/>
</svg>
