<svg width="667" height="651" viewBox="0 0 667 651" fill="none" xmlns="http://www.w3.org/2000/svg">
<path d="M333.334 0C254.183 0.00328218 177.616 28.1705 117.333 79.4616C57.0498 130.753 16.9843 201.821 4.30535 279.949C-8.37358 358.078 7.1615 438.169 48.1309 505.892C89.1003 573.614 152.83 624.549 227.918 649.583C244.585 652.5 250.835 642.501 250.835 633.75C250.835 625.833 250.418 599.583 250.418 571.667C166.668 587.083 145.001 551.251 138.334 532.501C130.937 514.265 119.21 498.105 104.168 485.417C92.5009 479.167 75.8342 463.75 103.751 463.334C114.41 464.491 124.634 468.2 133.555 474.147C142.477 480.095 149.833 488.105 155.001 497.5C159.56 505.69 165.69 512.9 173.041 518.716C180.391 524.533 188.817 528.842 197.835 531.397C206.854 533.951 216.288 534.701 225.597 533.604C234.906 532.506 243.907 529.582 252.084 525C253.527 508.054 261.079 492.21 273.334 480.418C199.168 472.084 121.668 443.333 121.668 315.834C121.199 282.706 133.424 250.654 155.834 226.251C145.644 197.458 146.836 165.86 159.168 137.918C159.168 137.918 187.083 129.167 250.834 172.084C305.377 157.083 362.958 157.083 417.501 172.084C481.25 128.751 509.168 137.918 509.168 137.918C521.501 165.86 522.693 197.459 512.501 226.251C534.979 250.612 547.214 282.692 546.668 315.834C546.668 443.75 468.75 472.084 394.584 480.418C402.539 488.48 408.666 498.161 412.548 508.801C416.431 519.442 417.978 530.793 417.084 542.084C417.084 586.668 416.667 622.5 416.667 633.751C416.667 642.501 422.917 652.918 439.584 649.584C514.539 624.347 578.086 573.292 618.881 505.535C659.676 437.778 675.064 357.728 662.297 279.675C649.53 201.621 609.44 130.646 549.183 79.417C488.926 28.1883 412.425 0.0411636 333.334 0Z" fill="#3B82F6"/>
</svg>
