<svg width="658" height="658" viewBox="0 0 658 658" fill="none" xmlns="http://www.w3.org/2000/svg">
<path d="M0 0V657.64H657.64V0H0ZM500.58 297.872C520.696 297.872 537.847 301.741 552.031 309.478C566.215 317.215 578.208 329.852 588.008 347.389L540.039 378.337C534.881 369.052 529.207 362.347 523.017 358.221C516.828 354.094 509.349 352.031 500.58 352.031C491.812 352.031 484.72 354.481 479.304 359.381C473.888 364.281 471.18 370.6 471.18 378.337C471.18 387.105 474.017 394.326 479.691 400C484.848 404.642 494.649 410.058 509.091 416.248L524.565 422.437C552.934 434.816 573.05 447.453 584.913 460.348C599.355 475.822 606.576 495.68 606.576 519.923C606.576 546.744 596.776 567.892 577.176 583.366C558.607 598.324 534.107 605.803 503.675 605.803C476.338 605.803 452.869 599.871 433.269 588.008C415.216 576.66 401.289 561.444 391.489 542.36L441.78 513.733C449.001 525.596 456.995 534.623 465.764 540.812C476.08 547.518 488.459 550.87 502.901 550.87C515.28 550.87 525.338 548.034 533.075 542.36C540.812 536.686 544.681 529.207 544.681 519.923C544.681 510.638 540.812 502.901 533.075 496.712C527.402 492.585 516.312 486.912 499.807 479.691L484.333 472.727C459.574 462.411 441.522 450.806 430.174 437.911C416.763 422.953 410.058 403.611 410.058 379.884C410.058 356.157 418.311 336.557 434.816 321.083C451.322 305.609 473.243 297.872 500.58 297.872ZM296.325 301.741H358.221V512.959C358.221 543.907 349.452 567.376 331.915 583.366C315.925 598.324 293.746 605.803 265.377 605.803C242.166 605.803 222.308 600.387 205.803 589.555C191.876 579.755 180.787 566.344 172.534 549.323L223.598 519.149C229.271 529.981 234.429 537.46 239.072 541.586C245.261 547.776 253.256 550.87 263.056 550.87C273.888 550.87 281.883 548.291 287.041 543.133C293.23 536.944 296.325 526.628 296.325 512.186V301.741Z" fill="#3B82F6"/>
</svg>
