<svg width="619" height="637" viewBox="0 0 619 637" fill="none" xmlns="http://www.w3.org/2000/svg">
<path d="M618.628 144.129C618.875 144.992 619 145.886 619 146.783V283.448C619 287.031 617.062 290.349 613.982 292.101L499.194 358.19V489.148C499.19 490.9 498.727 492.621 497.851 494.139C496.976 495.657 495.717 496.92 494.202 497.801L254.536 635.66C253.98 635.964 253.392 636.204 252.783 636.376C252.571 636.429 252.358 636.589 252.146 636.642C250.48 637.119 248.713 637.119 247.048 636.642C246.756 636.589 246.517 636.429 246.251 636.323C245.72 636.111 245.136 635.951 244.605 635.66L5.01849 497.801C3.49434 496.927 2.22774 495.667 1.34659 494.148C0.465438 492.629 0.000938636 490.904 0 489.148V78.9421C0 78.0663 0.132764 77.1904 0.37174 76.341C0.451398 76.0225 0.637268 75.8102 0.74348 75.4917C0.903207 74.9622 1.10751 74.4472 1.3542 73.9523C1.46041 73.6072 1.75249 73.3683 1.96491 73.0764L2.84115 71.882C3.15979 71.6166 3.50498 71.4042 3.82361 71.1654C4.19535 70.8469 4.54054 70.5283 4.91228 70.2629L124.772 1.33348C126.286 0.459902 128.003 0 129.751 0C131.498 0 133.215 0.459902 134.729 1.33348L254.536 70.2629H254.589C254.987 70.5283 255.306 70.8203 255.651 71.1388L256.66 71.8554C257.005 72.227 257.191 72.6517 257.536 73.0498C257.749 73.3418 258.067 73.6072 258.2 73.9257C258.465 74.4566 258.651 74.9343 258.837 75.4651C258.917 75.7571 259.103 76.0225 259.182 76.3145C259.448 77.1373 259.554 78.0132 259.554 78.9156V335.099L359.393 277.662V146.704C359.393 145.828 359.499 144.952 359.738 144.103C359.818 143.837 360.004 143.572 360.083 143.253C360.261 142.718 360.474 142.195 360.72 141.687C360.906 141.369 361.198 141.156 361.384 140.811C361.703 140.413 361.942 140.015 362.261 139.67C362.579 139.352 362.924 139.139 363.243 138.927C363.615 138.662 363.933 138.316 364.332 138.078H364.358L484.191 69.1216C485.705 68.248 487.422 67.7881 489.17 67.7881C490.918 67.7881 492.635 68.248 494.149 69.1216L613.982 138.078C614.406 138.343 614.698 138.635 615.097 138.9C615.415 139.166 615.761 139.378 616.053 139.644C616.398 140.015 616.637 140.44 616.955 140.811C617.168 141.13 617.46 141.369 617.593 141.687C617.862 142.194 618.076 142.728 618.23 143.28C618.389 143.545 618.549 143.837 618.628 144.129ZM598.979 277.688V164.009L557.079 188.109L499.14 221.446V335.125L598.979 277.688ZM479.226 483.388V369.603L422.217 402.117L259.554 494.961V609.755L479.226 483.388ZM19.8881 96.1944V483.388L239.56 609.755V494.961L124.798 430.066L124.745 429.986H124.692C124.32 429.721 124.028 429.429 123.63 429.163C123.338 428.898 122.993 428.685 122.701 428.447L122.674 428.393C122.329 428.075 122.117 427.73 121.851 427.332C121.586 427.04 121.293 426.748 121.108 426.376H121.054C120.842 426.005 120.709 425.553 120.523 425.129C120.364 424.704 120.152 424.412 120.045 423.987C119.945 423.488 119.874 422.983 119.833 422.475C119.78 422.103 119.674 421.758 119.674 421.386V153.658L61.7885 120.294L19.8881 96.1944ZM129.737 21.5054L29.8985 78.9421L129.737 136.379L229.523 78.9421L129.737 21.5054ZM181.675 379.954L239.613 346.618V96.1944L197.659 120.348L139.721 153.658V404.081L181.675 379.954ZM489.183 89.32L389.344 146.73L489.183 204.141L588.995 146.704L489.183 89.32ZM479.199 221.446L421.287 188.109L379.334 164.036V277.715L437.272 311.051L479.226 335.152L479.199 221.446ZM249.517 477.682L395.93 394.128L469.109 352.404L369.35 294.994L254.562 361.057L149.917 421.307L249.517 477.682Z" fill="#3B82F6"/>
</svg>
