<svg width="750" height="510" viewBox="0 0 750 510" fill="none" xmlns="http://www.w3.org/2000/svg">
<path d="M725.525 233.067C723.475 232.917 721.1 232.817 718.7 232.817C706.6 232.817 695.025 235.067 684.375 239.167L685.025 238.942C681.9 240.192 676.9 240.192 676.475 244.167C678.2 245.817 678.45 248.542 679.9 250.842C682.825 255.792 686.425 259.992 690.625 263.492L690.7 263.567C695.075 266.992 699.45 270.317 704.05 273.242C712.175 278.242 721.4 281.217 729.35 286.242C733.875 289.167 738.5 292.892 743.1 296.017C745.375 297.567 746.85 300.392 749.775 301.392V300.767C748.35 298.892 747.9 296.167 746.5 294.092C744.4 291.992 742.325 290.117 740.25 288.067C734.05 279.942 726.875 272.992 718.825 267.192L718.525 266.992C711.85 262.442 697.225 256.067 694.475 248.392L694.075 247.942C699.525 247.167 704.375 246.017 709.05 244.467L708.45 244.642C715.55 242.767 722.05 243.167 729.375 241.342C732.675 240.492 736.025 239.467 739.375 238.417V236.542C735.625 232.792 732.825 227.692 728.95 224.192C718.725 215.192 707.45 206.742 695.575 199.142L694.45 198.467C687.9 194.292 679.575 191.592 672.675 188.042C670.175 186.792 666 186.167 664.55 184.067C661.3 179.442 658.425 174.142 656.15 168.542L655.95 167.992C649.817 156.092 644.117 143.983 638.85 131.667C635.25 122.092 631.675 114.242 627.65 106.642L628.225 107.817C608.575 74.8416 581.2 48.3416 548.525 30.2666L547.45 29.7166C539.725 25.8916 530.75 22.9166 521.325 21.2416L520.7 21.1416C515.475 20.8916 510.275 20.5166 505.075 20.2916C501.425 17.9416 498.275 15.5416 495.325 12.8916L495.4 12.9666C483.525 5.46662 452.8 -10.7834 444.05 10.7166C438.425 24.2666 452.4 37.6416 457.225 44.5166C461.075 49.0916 464.575 54.2166 467.6 59.6416L467.85 60.1416C469.325 63.7666 469.725 67.4916 471.2 71.2666C474.825 82.5666 478.5 91.8416 482.675 100.817L482.025 99.2666C484.5 104.242 487.075 108.467 489.95 112.467L489.75 112.167C491.425 114.442 494.3 115.517 494.975 119.267C492.825 123.792 491.15 129.042 490.225 134.517L490.175 134.867C487.475 143.167 485.9 152.742 485.9 162.667C485.9 178.192 489.725 192.817 496.475 205.667L496.225 205.167C499.575 210.342 507.525 221.842 518.175 217.442C527.55 213.692 525.475 201.817 528.175 191.367C528.8 188.867 528.4 187.217 529.675 185.517V185.992C532.6 191.867 535.55 197.467 538.225 203.342C545.775 214.217 554.75 223.467 565 231.092L565.325 231.317C570.325 235.067 574.3 241.567 580.55 243.867V243.242H580.075C578.65 241.692 577.075 240.317 575.35 239.142L575.25 239.092C571.375 235.292 567.775 231.192 564.525 226.867L564.325 226.592C556.175 215.592 548.425 203.142 541.7 190.067L540.975 188.542C537.55 181.992 534.675 174.917 531.925 168.442C530.675 165.942 530.675 162.192 528.575 160.942C524.875 165.092 521.55 169.717 518.775 174.692L518.575 175.092C515.375 184.417 513.275 195.192 512.725 206.367V206.642C511.875 206.867 512.3 206.642 511.875 207.092C505.2 205.467 502.9 198.542 500.4 192.717C497 183.567 495.025 172.967 495.025 161.942C495.025 153.042 496.3 144.442 498.7 136.317L498.55 136.967C500.025 132.592 506.275 118.792 503.775 114.592C502.475 110.617 498.35 108.342 496.05 105.117C493.325 101.267 490.825 96.8916 488.75 92.2666L488.55 91.7666C483.55 80.0916 481.05 67.1416 475.625 55.4666C472.35 49.3666 468.9 44.1166 465.025 39.2166L465.2 39.4416C461.075 34.6666 457.275 29.3416 453.975 23.6916L453.7 23.1916C452.675 20.9166 451.2 17.1416 452.85 14.6416C453.15 13.1916 454.3 12.0666 455.775 11.8416C458.525 9.59161 466.275 12.5166 468.975 13.7666C476.9 16.7666 483.725 20.2916 490.05 24.4416L489.65 24.1916C492.575 26.2416 495.75 30.2166 499.5 31.2416H503.875C510.55 32.7166 518.1 31.6916 524.35 33.5166C535.825 37.3916 545.75 42.2416 554.925 48.1916L554.4 47.8666C582 65.6916 604.1 89.7916 619.05 118.267L619.55 119.292C622.05 124.092 623.15 128.517 625.425 133.517C629.8 143.817 635.2 154.242 639.65 164.192C643.875 174.892 648.875 184.142 654.825 192.667L654.525 192.217C657.65 196.592 670.2 198.867 675.825 201.142C681.75 203.217 686.5 205.192 691.1 207.417L690.175 207.017C697.35 211.392 704.35 216.392 711.1 221.192C714.525 223.567 724.95 228.792 725.575 232.992L725.525 233.067ZM432.425 415.892C432.425 416.267 432.45 416.692 432.45 417.117C432.45 431.067 426.225 443.542 416.375 451.942L416.3 451.992C405.5 460.792 391.575 466.142 376.4 466.142C375.225 466.142 374.05 466.117 372.9 466.042H373.05C354.575 465.792 337.575 459.792 323.65 449.767L323.9 449.942L331.3 435.067C342.025 441.067 354.775 444.792 368.325 445.317H368.475C369.15 445.367 369.925 445.392 370.725 445.392C379.025 445.392 386.75 442.792 393.075 438.367L392.95 438.442C398.675 434.092 402.325 427.292 402.325 419.642C402.325 419.492 402.325 419.367 402.325 419.217V419.242C402.325 408.942 395.15 400.192 382.075 392.842C369.95 386.192 345.75 372.317 345.75 372.317C333.8 364.917 325.975 351.892 325.975 337.042C325.975 336.517 325.975 335.992 326 335.467V335.542C325.975 335.067 325.975 334.517 325.975 333.967C325.975 321.092 331.65 309.542 340.625 301.692L340.675 301.642C350.225 293.542 362.7 288.617 376.325 288.617C377.2 288.617 378.05 288.642 378.9 288.667H378.775C379 288.667 379.275 288.667 379.55 288.667C395.525 288.667 410.4 293.442 422.8 301.667L422.5 301.492L415.85 316.367C406.075 311.967 394.675 309.317 382.675 309.192H382.625C382.025 309.142 381.35 309.117 380.65 309.117C373.65 309.117 367.2 311.567 362.15 315.667L362.2 315.617C357.475 319.542 354.475 325.417 354.45 331.992C354.45 342.242 361.75 351.042 375.25 358.542C387.525 365.267 412.325 379.467 412.325 379.467C424.525 386.642 432.6 399.692 432.6 414.642C432.6 415.092 432.6 415.567 432.575 416.017V415.942L432.425 415.892ZM484.225 429.167C477.4 415.542 473.425 399.492 473.425 382.517C473.425 379.842 473.525 377.192 473.725 374.592L473.7 374.942C473.7 331.425 486.925 309.658 513.375 309.642C514.025 309.592 514.8 309.567 515.6 309.567C527.475 309.567 537.9 315.767 543.825 325.117L543.9 325.242C550.675 338.792 554.65 354.792 554.65 371.692C554.65 374.292 554.55 376.867 554.375 379.417L554.4 379.067C554.4 422.933 541.175 444.883 514.725 444.917C514.05 444.967 513.275 444.992 512.5 444.992C500.625 444.992 490.175 438.792 484.25 429.442L484.175 429.317L484.225 429.167ZM587.075 467.967L555.325 452.342C558.225 449.917 560.825 447.367 563.225 444.617L563.3 444.542C576.125 427.242 583.825 405.467 583.825 381.917C583.825 379.192 583.725 376.492 583.525 373.817L583.55 374.167C583.55 317 561.108 288.4 516.225 288.367C515.225 288.317 514.05 288.292 512.875 288.292C493.7 288.292 476.475 296.717 464.75 310.092L464.7 310.167C451.925 327.467 444.25 349.217 444.25 372.767C444.25 375.417 444.35 378.042 444.55 380.642L444.525 380.292C444.3 382.817 444.175 385.767 444.175 388.742C444.175 410.592 451.025 430.842 462.675 447.467L462.45 447.142C473.675 459.092 489.6 466.542 507.225 466.542C508.875 466.542 510.5 466.467 512.1 466.342L511.875 466.367C512.1 466.367 512.4 466.367 512.675 466.367C520.45 466.367 527.975 465.242 535.1 463.167L534.55 463.317L575.95 487.442L587.2 468.017L587.075 467.967ZM690.775 463.742H608.6V290.992H636.25V442.517H690.775V463.742ZM305.75 336.292C298.575 388.392 282.15 435.417 258.125 477.542L259.125 475.617C249.5 494.142 231.3 507.042 209.925 509.117L209.675 509.142C203.2 508.792 197.175 507.242 191.7 504.717L192 504.842V489.417C195.425 489.942 199.375 490.242 203.4 490.242C203.625 490.242 203.85 490.242 204.1 490.242C204.5 490.267 204.925 490.267 205.375 490.267C212.6 490.267 219.225 487.642 224.325 483.267L224.275 483.292C229.775 478.767 233.3 472.017 233.5 464.417C232.175 453.467 229.65 443.467 226.025 434.042L226.325 434.892L194.65 336.292H223.075L245.8 410.017C249.85 420.417 252.2 432.467 252.2 445.042C252.2 445.067 252.2 445.092 252.2 445.092C264.25 413.542 273.4 376.742 278.05 338.567L278.275 336.267L305.75 336.292ZM180.25 463.742H151.3C150.483 417.725 147.675 371.8 142.875 325.967H142.625L98.575 463.742H76.55L32.8 325.967H32.5C29.0833 371.817 27.05 417.742 26.4 463.742H0C1.71667 402.325 5.98333 344.733 12.8 290.967H48.725L90.425 417.942H90.675L132.75 290.967H166.95C174.517 353.917 178.975 411.508 180.325 463.742H180.25ZM512.5 51.5666C512.45 51.5666 512.375 51.5666 512.3 51.5666C509.325 51.5666 506.45 51.9416 503.7 52.6416L503.95 52.5916V52.9916H504.375C506.525 56.1916 508.725 58.9666 511.1 61.5666L511.05 61.5166C512.725 64.8666 514.175 68.1916 515.85 71.5166L516.275 71.0416C519 68.8916 520.725 65.5916 520.725 61.8916C520.725 61.4416 520.7 61.0166 520.65 60.5666V60.6166C519.4 59.1416 519.225 57.6916 518.15 56.2416C516.9 54.1416 514.225 53.1166 512.525 51.4666L512.5 51.5666Z" fill="#3B82F6"/>
</svg>
