<svg width="566" height="274" viewBox="0 0 566 274" fill="none" xmlns="http://www.w3.org/2000/svg">
<path d="M142.05 56.275H42.875L0 273.375H50.925L61.65 217.1H109.9C155.45 219.775 206.4 182.25 206.4 117.925C206.4 80.4 184.95 58.95 142.075 56.275H142.05ZM104.525 176.9H72.35L85.75 96.5H120.6C139.35 96.5 152.775 104.55 152.775 120.625C150.1 166.2 128.65 174.225 104.525 176.9ZM321.625 56.275H273.375L284.1 0H233.175L190.3 217.1H241.225L265.35 96.5H305.55C324.325 96.5 324.325 104.55 321.625 117.95L302.875 217.125H356.475L375.225 107.225C380.575 80.425 364.5 58.95 321.625 56.275ZM501.2 56.275H402.025L359.15 273.375H410.075L420.8 217.1H469.05C514.625 219.775 565.55 182.25 565.55 117.925C565.55 80.4 544.075 58.95 501.2 56.275ZM463.675 176.9H431.5L444.9 96.5H479.75C498.525 96.5 511.925 104.55 511.925 120.625C509.25 166.2 487.8 174.225 463.675 176.9Z" fill="#3B82F6"/>
</svg>
