<svg width="800" height="534" viewBox="0 0 800 534" fill="none" xmlns="http://www.w3.org/2000/svg">
<path d="M400.003 0C345.285 0 298.241 14.7685 261.315 46.4197C224.654 77.8432 200.671 123.589 187.367 180.607C184.463 193.051 190.796 205.805 202.463 211.015C214.131 216.226 227.855 212.427 235.182 201.958C252.069 177.835 268.93 163.339 285.13 155.9C300.82 148.696 317.732 147.236 337.103 152.425C356.652 157.661 371.785 172.997 395.543 198.835L396.31 199.67C414.219 219.149 436.065 242.912 465.946 261.348C496.952 280.479 535.536 293.333 586.672 293.333C641.386 293.333 688.432 278.564 725.36 246.913C762.016 215.49 786 169.744 799.306 112.726C802.208 100.282 795.877 87.5275 784.208 82.3173C772.544 77.1072 758.816 80.9056 751.488 91.3739C734.602 115.498 717.744 129.993 701.541 137.433C685.85 144.637 668.938 146.097 649.568 140.908C630.021 135.671 614.885 120.336 591.13 94.4971L590.362 93.6619C572.453 74.1829 550.608 50.4203 520.726 31.9845C489.721 12.8539 451.137 0 400.003 0Z" fill="#3B82F6"/>
<path d="M213.337 240C158.618 240 111.575 254.768 74.6485 286.419C37.9878 317.843 14.0049 363.588 0.700614 420.608C-2.20297 433.051 4.12886 445.803 15.7966 451.013C27.4643 456.224 41.1881 452.427 48.5159 441.957C65.4027 417.835 82.2635 403.339 98.464 395.9C114.154 388.695 131.065 387.236 150.437 392.425C169.986 397.661 185.118 412.997 208.876 438.837L209.644 439.669C227.552 459.147 249.399 482.912 279.279 501.349C310.285 520.48 348.868 533.333 400.003 533.333C454.721 533.333 501.764 518.565 538.693 486.912C575.349 455.488 599.333 409.744 612.64 352.725C615.541 340.281 609.211 327.527 597.541 322.316C585.877 317.106 572.149 320.905 564.821 331.373C547.936 355.498 531.076 369.993 514.875 377.432C499.186 384.636 482.274 386.096 462.902 380.907C443.354 375.671 428.221 360.335 404.463 334.497L403.695 333.661C385.787 314.182 363.94 290.42 334.06 271.984C303.054 252.853 264.471 240 213.337 240Z" fill="#3B82F6"/>
</svg>
