<svg width="150" height="151" viewBox="0 0 150 151" fill="none" xmlns="http://www.w3.org/2000/svg">
<path d="M0 0H150V150H0V0Z" fill="#ECF0F1"/>
<path d="M122.343 123.515L103.916 118.857L91.7657 112.175L90.7532 93.1396H59.4333L58.4208 112.175L46.2708 118.857L27.8433 123.515L21.7008 136.812L19.6758 150.312H130.511L128.486 136.812L122.343 123.515Z" fill="#F0C7B1"/>
<path d="M59.4333 93.1396L58.4208 112.175L46.2708 118.857L27.8433 123.515L21.7008 136.812L19.6758 150.312H29.5308V136.812L31.3533 124.865L47.4183 120.545L64.0908 114.942L66.4533 93.1396H59.4333Z" fill="#D19271"/>
<path d="M89.7403 104.345L91.2253 102.59L90.7528 93.1396H59.4328L58.7578 105.627L66.3178 110.285H80.0878L89.7403 104.345Z" fill="#C27B55"/>
<path d="M70.2344 115.415L71.5844 120.748L76.2419 123.853C76.2419 123.853 70.5044 121.828 70.3694 121.423C70.2344 121.018 70.2344 115.415 70.2344 115.415Z" fill="#D19271"/>
<path d="M129.43 137.015L123.557 122.772L104.995 118.182L100.81 116.63L87.715 130.197L75.0925 139.512L62.47 130.197L49.375 116.63L45.19 118.182L26.6275 122.772L20.755 137.015L19 150.312H131.185L129.43 137.015Z" fill="#386E77"/>
<path d="M47.755 120.68L51.7375 119.127L49.375 116.63L45.19 118.182L26.6275 122.84L20.755 137.082L19 150.312H25.615L26.0875 137.42L29.665 126.147L33.3775 129.725L36.3475 136.137L34.3225 129.927L30.5425 124.865L47.755 120.68L57.07 131.007L75.0925 144.845L57.205 130.332L47.755 120.68ZM36.4825 150.312H38.44L37.0225 142.685L36.4825 150.312ZM75.16 144.845L93.1825 131.007L104.252 118.857L93.0475 130.332L75.16 144.845ZM113.162 142.685L111.745 150.312H113.702L113.162 142.685Z" fill="#265E68"/>
<path d="M47.9898 65.1394C47.9898 65.1394 43.9206 64.8795 40.7139 63.0198C40.7139 63.0198 38.6867 69.4798 38.5263 72.8678C38.5263 72.8678 43.5018 81.3941 45.9206 84.9849C45.9206 84.9849 49.401 84.3294 50.1178 83.8187L50.7647 78.107L47.9898 65.1394Z" fill="#F0C7B1"/>
<path d="M41.3193 64.272C41.1703 64.0094 40.7129 63.0195 40.7129 63.0195C44.2322 63.1055 47.9749 63.5852 47.9749 63.5852L50.7602 78.0393L50.1133 83.751C49.3965 84.2617 45.9161 84.9172 45.9161 84.9172C45.4763 84.2643 44.9585 83.4128 44.3733 82.5647L46.1612 83.147L48.1269 81.9625C48.1269 81.9625 48.2031 74.3881 48.0577 74.1929C47.9797 73.9942 41.4682 64.5346 41.3193 64.272Z" fill="#E1AC8F"/>
<path d="M39.6826 71.726L41.3757 67.9196L45.1211 72.3196L46.9397 78.6456L46.0631 79.9758L42.8961 75.0048L43.4041 71.8013L41.5102 69.1968L39.6826 71.726Z" fill="#D19271"/>
<path d="M97.736 62.533C97.736 62.533 101.756 61.8492 104.75 59.6645C104.75 59.6645 107.442 65.8771 107.955 69.2298C107.955 69.2298 103.898 78.2295 101.868 82.0535C101.868 82.0535 98.3383 81.7653 97.5721 81.3323L96.3317 75.7196L97.736 62.533Z" fill="#F0C7B1"/>
<path d="M104.278 60.9735C104.399 60.6968 104.75 59.6645 104.75 59.6645C101.259 60.1178 97.5873 60.9862 97.5873 60.9862L96.3281 75.6522L97.5686 81.2649C98.3348 81.6979 101.865 81.9861 101.865 81.9861C102.234 81.2908 102.66 80.3898 103.153 79.4852L101.436 80.2511L99.3571 79.2786C99.3571 79.2786 98.4896 71.7537 98.6138 71.5444C98.6706 71.3386 104.158 61.2502 104.278 60.9735Z" fill="#E1AC8F"/>
<path d="M106.685 68.2152L104.603 64.6067L101.338 69.3741L100.191 75.8556L101.202 77.0869L103.832 71.812L102.992 68.6792L104.603 65.891L106.685 68.2152Z" fill="#D19271"/>
<path d="M101.871 57.5848C101.376 50.7163 97.4221 41.055 97.4221 41.055C92.3611 33.4794 83.4539 28.6064 83.4539 28.6064C78.5476 27.8497 70.9697 27.7061 70.9697 27.7061C70.9697 27.7061 63.5157 28.6375 58.648 29.9065C58.648 29.9065 50.2989 35.6838 46.0576 43.7469C46.0576 43.7469 43.132 53.7011 43.3611 60.6511L44.9925 78.8832L50.1229 92.944L58.2737 101.439L68.2238 106.866L82.0424 106.142L91.3707 99.7045L98.5889 90.404L102.221 75.884L101.871 57.5848Z" fill="#F0C7B1"/>
<path d="M81.3794 103.811L67.7631 104.524L59.3207 99.4916L53.2702 91.0892L48.6007 78.0858L46.7247 59.0554L49.0624 44.3329L59.5096 32.1595L70.9694 28.9903L83.4539 28.6064C78.5476 27.8497 70.9697 27.7061 70.9697 27.7061C70.9697 27.7061 63.5157 28.6375 58.648 29.9065C58.648 29.9065 50.2989 35.6838 46.0576 43.7469C46.0576 43.7469 43.132 53.7011 43.3611 60.6511L44.9925 78.8832L50.1229 92.944L58.2737 101.439L68.2238 106.866L82.0424 106.142L91.3707 99.7045L98.5889 90.404L90.5089 98.7358L81.3794 103.811Z" fill="#D19271"/>
<path d="M67.0531 97.3966L71.3357 95.2796L77.6046 94.9511L82.6031 96.1761L78.0129 93.713L70.8677 94.0875L67.0531 97.3966Z" fill="#E1AC8F"/>
<path d="M82.1385 89.8412L78.1373 88.814L75.9143 88.7007L72.4226 88.8837L70.2237 89.2287L66.4596 90.6629L64.9108 91.42L66.0475 92.861L71.0129 94.7435L77.9289 94.381L82.6702 91.9898L83.6501 90.4379L82.1385 89.8412Z" fill="#DA7C87"/>
<path d="M62.9087 91.2345L67.148 92.1614L80.5621 91.4584L85.6108 89.7743L80.0549 90.809L67.0452 91.4908L62.9087 91.2345Z" fill="#CB5F6C"/>
<path d="M66.9495 69.6882L65.0171 65.0579L57.287 63.3001L52.3765 65.0445L56.4446 70.4415L66.9495 69.6882Z" fill="white"/>
<path d="M61.1585 70.1268L57.3804 68.9729L56.5014 65.0986L59.4005 62.3781L63.1821 63.5994L64.0576 67.4063L61.1585 70.1268Z" fill="#5F4B31"/>
<path d="M58.2933 67.0332L58.5882 64.9224L60.5751 64.1424L62.2671 65.4731L61.9047 67.5875L59.9178 68.3675L58.2933 67.0332Z" fill="black"/>
<path d="M58.0275 64.5452L59.5847 65.883L59.975 65.5922L59.0707 63.8146L58.0275 64.5452Z" fill="white"/>
<path d="M60.9575 67.5694L61.3299 68.2258L61.855 67.928L61.55 67.268L60.9575 67.5694Z" fill="white"/>
<path d="M50.5956 63.3136L51.016 71.3351L56.6379 76.7182L64.1875 76.3226L69.216 70.3813L68.7956 62.3598L63.1737 56.9766L55.624 57.3723L50.5956 63.3136ZM52.3761 65.0453L57.2866 63.3009L65.0167 65.0587L66.9491 69.6889L56.4442 70.4423L52.3761 65.0453Z" fill="#F0C7B1"/>
<path d="M67.2657 70.5507L65.5357 64.6256L61.0624 63.1026L56.8478 62.6476L51.3163 65.4384L57.2946 63.4353L64.826 65.2711L67.2657 70.5507Z" fill="#2A150E"/>
<path d="M79.3525 69.0396L80.7904 64.2328L88.2944 61.6766L93.3603 62.8981L89.8787 68.6907L79.3525 69.0396Z" fill="white"/>
<path d="M86.5061 68.7996L82.7281 67.6457L81.8491 63.7714L84.7482 61.051L88.5298 62.2722L89.4052 66.0792L86.5061 68.7996Z" fill="#5F4B31"/>
<path d="M83.639 65.7051L84.0013 63.5908L85.9882 62.8107L87.6128 64.145L87.3178 66.2558L85.3309 67.0359L83.639 65.7051Z" fill="black"/>
<path d="M83.4435 63.2151L85.0007 64.5529L85.391 64.2621L84.4867 62.4845L83.4435 63.2151Z" fill="white"/>
<path d="M86.3051 66.2413L86.7449 66.8942L87.27 66.5963L86.9651 65.9364L86.3051 66.2413Z" fill="white"/>
<path d="M89.326 55.5391L81.7764 55.9348L76.7479 61.8761L77.1683 69.8976L82.7902 75.2807L90.3399 74.8851L95.3683 68.9438L94.9515 60.9897L89.326 55.5391ZM89.8801 68.6906L79.3539 69.0395L80.7918 64.2327L88.2958 61.6765L93.3617 62.898L89.8801 68.6906Z" fill="#F0C7B1"/>
<path d="M79.131 69.9298L80.2322 63.8564L84.5218 61.8742L88.6658 60.9811L94.4587 63.1784L88.3037 61.8112L81.0055 64.4242L79.131 69.9298Z" fill="#2A150E"/>
<path d="M54.9688 55.1761L52.8612 56.2329L49.8088 62.4762L55.3759 59.0752L67.1681 60.9581L67.5628 56.8819L54.9688 55.1761Z" fill="#3B3128"/>
<path d="M64.4292 59.0068L63.479 56.3529L62.3189 56.1433L64.4292 59.0068ZM54.1806 55.6235L58.1179 58.5265L54.9683 55.1767L54.1806 55.6235ZM58.8494 55.7168L61.5875 58.953L60.1442 55.9193L58.8494 55.7168ZM51.1535 59.7702L52.9205 58.6637L51.5226 59.0749L51.1535 59.7702ZM60.8928 56.0153L62.1058 57.236L61.7087 56.1077L60.8928 56.0153ZM52.559 56.9252L55.1487 57.3302L52.8607 56.2335L52.559 56.9252ZM63.7522 56.4062L66.2951 59.7877L65.1854 56.669L63.7522 56.4062Z" fill="#4A423A"/>
<path d="M77.4049 56.3661L78.2235 60.3787L89.7543 57.2735L95.6464 60.074L91.9581 54.184L89.7516 53.3533L77.4049 56.3661Z" fill="#3B3128"/>
<path d="M82.5408 55.0839L81.4055 55.3462L80.7379 58.0849L82.5408 55.0839ZM89.7501 53.3542L86.9679 57.0149L90.5802 53.7163L89.7501 53.3542ZM84.6802 54.6338L83.5619 57.8017L85.9468 54.2971L84.6802 54.6338ZM93.517 56.8744L92.0838 56.6116L93.9568 57.5273L93.517 56.8744ZM83.1439 54.9847L82.8669 56.1483L83.9457 54.8075L83.1439 54.9847ZM91.9566 54.1849L89.8632 55.5113L92.3964 54.8378L91.9566 54.1849ZM79.7415 55.839L78.9638 59.0566L81.1394 55.4277L79.7415 55.839Z" fill="#4A423A"/>
<path d="M97.112 72.6133L94.1518 74.1676L93.3815 78.0405L93.1248 83.5898L88.4113 86.5135L86.6308 81.5576L83.0228 81.1992L78.1981 81.9996L75.1229 83.6816L72.7569 83.8056L69.5228 82.4542L64.6408 82.1626L61.0901 82.8962L59.8373 88.011L54.8441 85.596L54.0088 80.104L52.8378 76.3328L49.7314 75.0965L47.912 86.811L49.1751 92.3414L67.2688 110.252L83.3454 109.409L99.471 89.7664L100.149 84.1342L99.1996 75.3023L97.112 72.6133ZM80.4683 96.2981L78.2075 97.2682L76.7804 96.7347L76.6882 94.9754L72.3202 95.2043L72.4124 96.9636L71.0488 97.6434L68.699 96.9149L63.809 89.5062L64.3651 87.3479L67.4588 88.3416L72.2515 88.0904L73.7427 87.5256L74.4707 87.4874L76.0128 87.8933L80.8055 87.6421L83.7784 86.3305L84.557 88.4188L80.4683 96.2981Z" fill="#504543"/>
<path d="M78.2075 97.2682L76.7835 96.7954L77.5293 102.9L78.4245 97.926L79.3875 103.533L79.4015 97.9965L81.4803 97.0359L81.9808 100.781L82.2276 96.2059L82.6643 99.8938L83.3233 93.8976L84.7099 90.175L84.5634 88.5402L80.4747 96.4194L78.2075 97.2682ZM72.4155 97.0243L71.052 97.7041L68.7022 96.9756L65.2677 91.8022C66.2251 93.8204 67.923 97.1989 67.923 97.1989L69.1067 101.213L69.7332 98.0774L71.2709 104.202L72.1247 98.4387L72.8551 101.929L73.1624 98.506L73.2972 95.2747L72.2658 95.3288L72.4155 97.0243ZM63.7484 89.5094L64.3044 87.351L67.3982 88.3447L72.1908 88.0936L73.6821 87.5287L74.4101 87.4906L75.9522 87.8964L80.7448 87.6453L83.7178 86.3336L84.4964 88.422L84.2701 86.4264L85.5513 83.0134L83.6348 85.9121L80.5406 87.2301L76.1087 87.4016L73.8484 86.06L71.6194 87.6368L66.8747 87.6422L63.4045 85.269L63.6691 86.8368L60.972 82.9632L63.7484 89.5094ZM57.8661 93.346C57.7832 92.9245 57.2062 88.8789 56.9033 86.5831L56.0924 86.1998C56.7145 88.783 57.949 93.7674 57.8661 93.346ZM59.7767 88.0142L58.9019 87.5733L59.5144 89.9746L59.7767 88.0142ZM58.5117 90.5746C58.499 90.332 58.4738 88.6908 58.4645 87.3529L57.2801 86.8067C57.7938 88.4831 58.5276 90.878 58.5117 90.5746ZM55.5425 89.6352C55.5298 89.3926 55.6068 87.381 55.6582 86.04L54.7834 85.5992C54.7834 85.5992 55.5647 90.0599 55.5425 89.6352ZM89.5161 86.6989C89.532 87.0023 90.814 94.0526 90.814 94.0526L90.6306 85.9105L91.5176 88.9057L91.8601 84.9944L92.4824 86.4218L92.684 84.4646L93.2681 85.164L93.0066 83.6568L88.2932 86.5805L88.7457 90.5718C88.8032 90.508 89.5002 86.3956 89.5161 86.6989ZM47.912 86.811L49.2705 94.1614L59.1537 103.985L67.2081 110.255L83.2848 109.412L90.8185 102.265L99.5057 91.5896L100.088 84.1373C100.088 84.1373 99.1136 88.7509 99.0082 89.0606C98.8421 89.3735 97.6987 90.7718 97.6987 90.7718L97.5651 88.2238C97.5651 88.2238 97.1654 91.043 97.1781 91.2857C97.1908 91.5284 90.516 98.8132 90.516 98.8132C90.516 98.8132 90.1588 96.6419 90.1461 96.3992C90.1334 96.1566 89.7718 99.7039 89.7718 99.7039L89.2332 95.2304L88.8009 100.911L83.8827 105.731L83.5541 104.106L83.0045 106.385L74.8754 105.655L67.5824 106.95L62.3118 102.725L61.2365 99.6177C61.2365 99.6177 60.9008 101.339 60.9135 101.581C60.9262 101.824 59.0882 96.9319 59.0882 96.9319L59.4962 100.074L57.4436 98.0523L55.5674 92.4323L55.7868 96.6183L51.3559 92.1663L49.5531 86.7858L49.61 75.1028L47.949 78.2315L47.912 86.811Z" fill="#413230"/>
<path d="M70.5676 70.1149L70.4904 74.4449L66.9075 80.6281L68.9958 82.0395L70.0232 80.6203L73.0701 83.0427L74.6946 82.9575L77.438 80.2317L78.5655 81.4974L80.6115 79.9099L76.3935 74.1017L75.7878 69.767L73.1552 68.8032L70.5676 70.1149Z" fill="#F0C7B1"/>
<path d="M76.6904 74.2075L74.8224 63.7136L76.0779 73.4826L75.4904 73.3646L80.2812 79.9134L78.765 81.1622L77.8488 80.1896L77.9902 79.2764L74.6766 82.4715L73.0589 82.5562L69.4295 79.7251L69.6723 80.6181L68.8561 81.6815L67.2176 80.598L71.3044 73.584L70.7325 73.7627L70.8232 58.3401L70.1923 74.5481L66.5811 80.7057L69.2479 82.4518L70.1476 81.046L73.1101 83.5337L74.7279 83.4489L77.4208 80.6649L78.4558 81.9692L80.9254 79.954L76.6904 74.2075Z" fill="#D19271"/>
<path d="M71.055 79.0513L72.7042 79.9517L74.7959 79.8826L76.4738 79.0106L76.2094 77.8348L73.7683 77.5572L71.1358 78.1413L71.055 79.0513Z" fill="#F8D5C3"/>
<path d="M89.1907 41.3515L82.3773 49.3465L73.4219 53.8714L80.7139 47.2707L71.46 53.839C71.46 53.839 65.4958 56.1118 65.8932 55.9558C66.2905 55.7998 77.2232 46.4398 77.2232 46.4398L65.6418 53.7384L59.6634 55.7415L64.9506 50.8681L73.3147 41.5076L65.7459 47.9876L60.4941 53.535L62.3576 49.1114L66.1972 44.9898L60.4702 49.2103L54.8669 55.7901L51.8283 63.5873L52.55 56.7226L56.7557 49.2698L50.9605 57.3467L50.5579 65.1409L50.6874 72.7721L47.1595 63.494C47.1595 63.494 47.8637 71.771 48.1651 72.3636C48.4701 73.0235 50.7422 81.5563 50.7422 81.5563L46.6144 73.7291L47.9149 80.4878L43.2199 70.8653L42.033 63.6951L40.6702 66.0647C40.6702 66.0647 38.7538 52.7142 38.8675 52.3027C38.9811 51.8912 42.077 41.3197 42.077 41.3197L40.1434 41.8266L44.363 35.9276L52.3576 28.5466L48.4833 29.4256L56.4383 25.1559L70.0657 22.076L77.3349 22.7765L70.2188 19.8374L80.6166 22.199L87.3848 26.2378L90.4314 30.2013L93.7058 30.7732L101.265 34.4326L106.358 42.6147L103.211 40.6167L106.25 47.0139L107.252 59.6688L105.443 56.1136L105.896 59.6047L106.743 64.1566L103.934 60.8566L102.443 64.6523L100.732 71.9744L100.471 61.8492L99.3346 53.0541L94.0356 47.3837L95.4894 50.6195L89.9066 44.6936L89.1907 41.3515Z" fill="#3B3128"/>
<path d="M89.1372 36.4879L82.4089 44.8165L76.3805 48.4444L81.6715 42.3542L71.6408 48.2873L67.4648 49.858L72.475 46.1482L80.502 36.8053C80.502 36.8053 69.9997 41.4788 69.3398 41.7838C68.6798 42.0887 59.7559 48.5046 59.7559 48.5046L67.0659 40.9567L54.8245 48.5602L49.6112 56.1335L48.7977 61.2455L47.9264 54.9375L53.4343 46.5377L63.9763 38.7528L53.4104 42.2131L47.3638 48.0725L52.9642 38.8568L64.9282 33.7011L56.9317 33.3091L53.1319 34.3193L57.5387 31.993L70.7294 30.8961L66.1677 27.688L59.7037 28.1619L68.1122 26.099L74.7959 27.2358L72.4266 24.5887L79.9721 26.6942L85.3709 30.3992L82.6613 26.418L80.0507 24.3243L85.3506 26.1419L90.05 31.979L89.1372 36.4879ZM91.4229 32.3802L90.8789 37.4781L93.1164 42.7683L101.005 51.4123L102.088 59.1962L102.878 51.0437L105.666 53.9393L103.737 48.0922L98.4277 40.9353L104.171 44.7575L98.5846 37.4798L101.674 38.3994L98.9861 34.8227L91.4229 32.3802Z" fill="#433931"/>
<path d="M87.7111 35.0755L82.1258 40.708L75.959 44.2756L82.0339 38.9554L87.7111 35.0755ZM84.7493 32.7298L76.1356 32.1673L62.3765 36.606C62.3765 36.606 75.9295 33.3948 76.5362 33.363C77.1429 33.3312 84.7493 32.7298 84.7493 32.7298ZM45.1631 67.9924L44.3571 55.192L46.7958 48.8457L42.9912 54.9256L45.1631 67.9924Z" fill="#4A423A"/>
</svg>
