<svg width="113" height="133" viewBox="0 0 113 133" fill="none" xmlns="http://www.w3.org/2000/svg">
<path d="M103.343 105.515L84.9157 100.857L72.7657 94.1746L71.7532 75.1396H40.4333L39.4208 94.1746L27.2708 100.857L8.84328 105.515L2.70078 118.812L0.675781 132.312H111.511L109.486 118.812L103.343 105.515Z" fill="#F0C7B1"/>
<path d="M40.4333 75.1396L39.4208 94.1746L27.2708 100.857L8.84328 105.515L2.70078 118.812L0.675781 132.312H10.5308V118.812L12.3533 106.865L28.4183 102.545L45.0908 96.9421L47.4533 75.1396H40.4333Z" fill="#D19271"/>
<path d="M70.7403 86.3446L72.2253 84.5896L71.7528 75.1396H40.4328L39.7578 87.6271L47.3178 92.2846H61.0878L70.7403 86.3446Z" fill="#C27B55"/>
<path d="M51.2344 97.415L52.5844 102.748L57.2419 105.853C57.2419 105.853 51.5044 103.828 51.3694 103.423C51.2344 103.018 51.2344 97.415 51.2344 97.415Z" fill="#D19271"/>
<path d="M110.43 119.015L104.557 104.772L85.995 100.182L81.81 98.6299L68.715 112.197L56.0925 121.512L43.47 112.197L30.375 98.6299L26.19 100.182L7.6275 104.772L1.755 119.015L0 132.312H112.185L110.43 119.015Z" fill="#0087FF"/>
<path d="M28.755 102.68L32.7375 101.127L30.375 98.6299L26.19 100.182L7.6275 104.84L1.755 119.082L0 132.312H6.615L7.0875 119.42L10.665 108.147L14.3775 111.725L17.3475 118.137L15.3225 111.927L11.5425 106.865L28.755 102.68L38.07 113.007L56.0925 126.845L38.205 112.332L28.755 102.68ZM17.4825 132.312H19.44L18.0225 124.685L17.4825 132.312ZM56.16 126.845L74.1825 113.007L85.2525 100.857L74.0475 112.332L56.16 126.845ZM94.1625 124.685L92.745 132.312H94.7025L94.1625 124.685Z" fill="#265E68"/>
<path d="M28.9898 47.1394C28.9898 47.1394 24.9206 46.8795 21.7139 45.0198C21.7139 45.0198 19.6867 51.4798 19.5263 54.8678C19.5263 54.8678 24.5018 63.3941 26.9206 66.9849C26.9206 66.9849 30.401 66.3294 31.1178 65.8187L31.7647 60.107L28.9898 47.1394Z" fill="#F0C7B1"/>
<path d="M22.3193 46.272C22.1703 46.0094 21.7129 45.0195 21.7129 45.0195C25.2322 45.1055 28.9749 45.5852 28.9749 45.5852L31.7602 60.0393L31.1133 65.751C30.3965 66.2617 26.9161 66.9172 26.9161 66.9172C26.4763 66.2643 25.9585 65.4128 25.3733 64.5647L27.1612 65.147L29.1269 63.9625C29.1269 63.9625 29.2031 56.3881 29.0577 56.1929C28.9797 55.9942 22.4682 46.5346 22.3193 46.272Z" fill="#E1AC8F"/>
<path d="M20.6826 53.726L22.3757 49.9196L26.1211 54.3196L27.9397 60.6456L27.0631 61.9758L23.8961 57.0048L24.4041 53.8013L22.5102 51.1968L20.6826 53.726Z" fill="#D19271"/>
<path d="M78.736 44.533C78.736 44.533 82.7557 43.8492 85.7504 41.6645C85.7504 41.6645 88.4418 47.8771 88.9554 51.2298C88.9554 51.2298 84.8984 60.2295 82.8682 64.0535C82.8682 64.0535 79.3383 63.7653 78.5721 63.3323L77.3317 57.7196L78.736 44.533Z" fill="#F0C7B1"/>
<path d="M85.2783 42.9735C85.399 42.6968 85.7504 41.6645 85.7504 41.6645C82.2594 42.1178 78.5873 42.9862 78.5873 42.9862L77.3281 57.6522L78.5686 63.2649C79.3348 63.6979 82.8647 63.9861 82.8647 63.9861C83.2338 63.2908 83.6598 62.3898 84.1531 61.4852L82.4358 62.2511L80.3571 61.2786C80.3571 61.2786 79.4896 53.7537 79.6138 53.5444C79.6706 53.3386 85.1576 43.2502 85.2783 42.9735Z" fill="#E1AC8F"/>
<path d="M87.6851 50.2152L85.6034 46.6067L82.3384 51.3741L81.1911 57.8556L82.2019 59.0869L84.8319 53.812L83.9918 50.6792L85.6031 47.891L87.6851 50.2152Z" fill="#D19271"/>
<path d="M82.8707 39.5848C82.3756 32.7163 78.4221 23.055 78.4221 23.055C73.3611 15.4794 64.4539 10.6064 64.4539 10.6064C59.5476 9.84968 51.9697 9.70608 51.9697 9.70608C51.9697 9.70608 44.5157 10.6375 39.648 11.9065C39.648 11.9065 31.2989 17.6838 27.0576 25.7469C27.0576 25.7469 24.132 35.7011 24.3611 42.6511L25.9925 60.8832L31.1229 74.944L39.2737 83.4391L49.2238 88.8657L63.0424 88.1415L72.3707 81.7045L79.5889 72.404L83.2214 57.884L82.8707 39.5848Z" fill="#F0C7B1"/>
<path d="M62.3794 85.8105L48.7631 86.5241L40.3207 81.4916L34.2702 73.0892L29.6007 60.0858L27.7247 41.0554L30.0624 26.3329L40.5096 14.1595L51.9694 10.9903L64.4539 10.6064C59.5476 9.84968 51.9697 9.70608 51.9697 9.70608C51.9697 9.70608 44.5157 10.6375 39.648 11.9065C39.648 11.9065 31.2989 17.6838 27.0576 25.7469C27.0576 25.7469 24.132 35.7011 24.3611 42.6511L25.9925 60.8832L31.1229 74.944L39.2737 83.4391L49.2238 88.8657L63.0424 88.1415L72.3707 81.7045L79.5889 72.404L71.5089 80.7358L62.3794 85.8105Z" fill="#D19271"/>
<path d="M48.0531 79.3966L52.3357 77.2796L58.6046 76.9511L63.6031 78.1761L59.0129 75.713L51.8677 76.0875L48.0531 79.3966Z" fill="#E1AC8F"/>
<path d="M63.1385 71.8412L59.1373 70.814L56.9143 70.7007L53.4226 70.8837L51.2237 71.2287L47.4596 72.6629L45.9108 73.42L47.0475 74.861L52.0129 76.7435L58.9289 76.381L63.6702 73.9898L64.6501 72.4379L63.1385 71.8412Z" fill="#DA7C87"/>
<path d="M43.9087 73.2345L48.148 74.1614L61.5621 73.4584L66.6108 71.7743L61.0549 72.809L48.0452 73.4908L43.9087 73.2345Z" fill="#CB5F6C"/>
<path d="M47.9495 51.6882L46.0171 47.0579L38.287 45.3001L33.3765 47.0445L37.4446 52.4415L47.9495 51.6882Z" fill="white"/>
<path d="M42.1585 52.1268L38.3804 50.9729L37.5014 47.0986L40.4005 44.3781L44.1821 45.5994L45.0576 49.4063L42.1585 52.1268Z" fill="#5F4B31"/>
<path d="M39.2933 49.0332L39.5882 46.9224L41.5751 46.1424L43.2671 47.4731L42.9047 49.5875L40.9178 50.3675L39.2933 49.0332Z" fill="black"/>
<path d="M39.0275 46.5452L40.5847 47.883L40.975 47.5922L40.0707 45.8146L39.0275 46.5452Z" fill="white"/>
<path d="M41.9575 49.5694L42.3299 50.2258L42.855 49.928L42.55 49.268L41.9575 49.5694Z" fill="white"/>
<path d="M31.5956 45.3136L32.016 53.3351L37.6379 58.7182L45.1875 58.3226L50.216 52.3813L49.7956 44.3598L44.1737 38.9766L36.624 39.3723L31.5956 45.3136ZM33.3761 47.0453L38.2866 45.3009L46.0167 47.0587L47.9491 51.6889L37.4442 52.4423L33.3761 47.0453Z" fill="#F0C7B1"/>
<path d="M48.2657 52.5507L46.5357 46.6256L42.0624 45.1026L37.8478 44.6476L32.3163 47.4384L38.2946 45.4353L45.826 47.2711L48.2657 52.5507Z" fill="#2A150E"/>
<path d="M60.3525 51.0396L61.7904 46.2328L69.2944 43.6766L74.3603 44.8981L70.8787 50.6907L60.3525 51.0396Z" fill="white"/>
<path d="M67.5061 50.7996L63.7281 49.6457L62.8491 45.7714L65.7482 43.051L69.5298 44.2722L70.4052 48.0792L67.5061 50.7996Z" fill="#5F4B31"/>
<path d="M64.639 47.7051L65.0013 45.5908L66.9882 44.8107L68.6128 46.145L68.3178 48.2558L66.3309 49.0359L64.639 47.7051Z" fill="black"/>
<path d="M64.4435 45.2151L66.0007 46.5529L66.391 46.2621L65.4867 44.4845L64.4435 45.2151Z" fill="white"/>
<path d="M67.3051 48.2413L67.7449 48.8942L68.27 48.5963L67.9651 47.9364L67.3051 48.2413Z" fill="white"/>
<path d="M70.326 37.5391L62.7764 37.9348L57.7479 43.8761L58.1683 51.8976L63.7902 57.2807L71.3399 56.8851L76.3683 50.9438L75.9515 42.9897L70.326 37.5391ZM70.8801 50.6906L60.3539 51.0395L61.7918 46.2327L69.2958 43.6765L74.3617 44.898L70.8801 50.6906Z" fill="#F0C7B1"/>
<path d="M60.131 51.9298L61.2322 45.8564L65.5218 43.8742L69.6658 42.9811L75.4587 45.1784L69.3037 43.8112L62.0055 46.4242L60.131 51.9298Z" fill="#2A150E"/>
<path d="M35.9688 37.1761L33.8612 38.2329L30.8088 44.4762L36.3759 41.0752L48.1681 42.9581L48.5628 38.8819L35.9688 37.1761Z" fill="#3B3128"/>
<path d="M45.4292 41.0068L44.479 38.3529L43.3189 38.1433L45.4292 41.0068ZM35.1806 37.6235L39.1179 40.5265L35.9683 37.1767L35.1806 37.6235ZM39.8494 37.7168L42.5875 40.953L41.1442 37.9193L39.8494 37.7168ZM32.1535 41.7702L33.9205 40.6637L32.5226 41.0749L32.1535 41.7702ZM41.8928 38.0153L43.1058 39.236L42.7087 38.1077L41.8928 38.0153ZM33.559 38.9252L36.1487 39.3302L33.8607 38.2335L33.559 38.9252ZM44.7522 38.4062L47.2951 41.7877L46.1854 38.669L44.7522 38.4062Z" fill="#4A423A"/>
<path d="M58.4049 38.3661L59.2235 42.3787L70.7543 39.2735L76.6464 42.074L72.9581 36.184L70.7516 35.3533L58.4049 38.3661Z" fill="#3B3128"/>
<path d="M63.5408 37.0839L62.4055 37.3462L61.7379 40.0849L63.5408 37.0839ZM70.7501 35.3542L67.9679 39.0149L71.5802 35.7163L70.7501 35.3542ZM65.6802 36.6338L64.5619 39.8017L66.9468 36.2971L65.6802 36.6338ZM74.517 38.8744L73.0838 38.6116L74.9568 39.5273L74.517 38.8744ZM64.1439 36.9847L63.8669 38.1483L64.9457 36.8075L64.1439 36.9847ZM72.9566 36.1849L70.8632 37.5113L73.3964 36.8378L72.9566 36.1849ZM60.7415 37.839L59.9638 41.0566L62.1394 37.4277L60.7415 37.839Z" fill="#4A423A"/>
<path d="M78.112 54.6133L75.1518 56.1676L74.3815 60.0405L74.1248 65.5898L69.4113 68.5135L67.6308 63.5576L64.0228 63.1992L59.1981 63.9996L56.1229 65.6816L53.7569 65.8056L50.5228 64.4542L45.6408 64.1626L42.0901 64.8962L40.8373 70.011L35.8441 67.596L35.0088 62.104L33.8378 58.3328L30.7314 57.0965L28.912 68.811L30.1751 74.3414L48.2688 92.2515L64.3454 91.409L80.471 71.7664L81.1492 66.1342L80.1996 57.3023L78.112 54.6133ZM61.4683 78.2981L59.2075 79.2682L57.7804 78.7347L57.6882 76.9754L53.3202 77.2043L53.4124 78.9636L52.0488 79.6434L49.699 78.9149L44.809 71.5062L45.3651 69.3479L48.4588 70.3416L53.2515 70.0904L54.7427 69.5256L55.4707 69.4874L57.0128 69.8933L61.8055 69.6421L64.7784 68.3305L65.557 70.4188L61.4683 78.2981Z" fill="#504543"/>
<path d="M59.2075 79.2682L57.7835 78.7954L58.5293 84.9005L59.4245 79.926L60.3875 85.5331L60.4015 79.9965L62.4803 79.0359L62.9808 82.7813L63.2276 78.2059L63.6643 81.8938L64.3233 75.8976L65.7099 72.175L65.5634 70.5402L61.4747 78.4194L59.2075 79.2682ZM53.4155 79.0243L52.052 79.7041L49.7022 78.9756L46.2677 73.8022C47.2251 75.8204 48.923 79.1989 48.923 79.1989L50.1067 83.2127L50.7332 80.0774L52.2709 86.2018L53.1247 80.4387L53.8551 83.9288L54.1624 80.506L54.2972 77.2747L53.2658 77.3288L53.4155 79.0243ZM44.7484 71.5094L45.3044 69.351L48.3982 70.3447L53.1908 70.0936L54.6821 69.5287L55.4101 69.4906L56.9522 69.8964L61.7448 69.6453L64.7178 68.3336L65.4964 70.422L65.2701 68.4264L66.5513 65.0134L64.6348 67.9121L61.5406 69.2301L57.1087 69.4016L54.8484 68.06L52.6194 69.6368L47.8747 69.6422L44.4045 67.269L44.6691 68.8368L41.972 64.9632L44.7484 71.5094ZM38.8661 75.346C38.7832 74.9245 38.2062 70.8789 37.9033 68.5831L37.0924 68.1998C37.7145 70.783 38.949 75.7674 38.8661 75.346ZM40.7767 70.0142L39.9019 69.5733L40.5144 71.9746L40.7767 70.0142ZM39.5117 72.5746C39.499 72.332 39.4738 70.6908 39.4645 69.3529L38.2801 68.8067C38.7938 70.4831 39.5276 72.878 39.5117 72.5746ZM36.5425 71.6352C36.5298 71.3926 36.6068 69.381 36.6582 68.04L35.7834 67.5992C35.7834 67.5992 36.5647 72.0599 36.5425 71.6352ZM70.5161 68.6989C70.532 69.0023 71.814 76.0526 71.814 76.0526L71.6306 67.9105L72.5176 70.9057L72.8601 66.9944L73.4824 68.4218L73.684 66.4646L74.2681 67.164L74.0066 65.6568L69.2932 68.5805L69.7457 72.5718C69.8032 72.508 70.5002 68.3956 70.5161 68.6989ZM28.912 68.811L30.2705 76.1614L40.1537 85.9851L48.2081 92.2547L64.2848 91.4122L71.8185 84.2648L80.5057 73.5896L81.0885 66.1373C81.0885 66.1373 80.1136 70.7509 80.0082 71.0606C79.8421 71.3735 78.6987 72.7718 78.6987 72.7718L78.5651 70.2238C78.5651 70.2238 78.1654 73.043 78.1781 73.2857C78.1908 73.5284 71.516 80.8132 71.516 80.8132C71.516 80.8132 71.1588 78.6419 71.1461 78.3992C71.1334 78.1566 70.7718 81.7039 70.7718 81.7039L70.2332 77.2304L69.8009 82.9106L64.8827 87.7308L64.5541 86.1055L64.0045 88.3852L55.8754 87.6554L48.5824 88.9501L43.3118 84.7246L42.2365 81.6177C42.2365 81.6177 41.9008 83.3386 41.9135 83.5812C41.9262 83.8239 40.0882 78.9319 40.0882 78.9319L40.4962 82.0739L38.4436 80.0523L36.5674 74.4323L36.7868 78.6183L32.3559 74.1663L30.5531 68.7858L30.61 57.1028L28.949 60.2315L28.912 68.811Z" fill="#413230"/>
<path d="M51.5676 52.1149L51.4904 56.4449L47.9075 62.6281L49.9958 64.0395L51.0232 62.6203L54.0701 65.0427L55.6946 64.9575L58.438 62.2317L59.5655 63.4974L61.6115 61.9099L57.3935 56.1017L56.7878 51.767L54.1552 50.8032L51.5676 52.1149Z" fill="#F0C7B1"/>
<path d="M57.6904 56.2075L55.8224 45.7136L57.0779 55.4826L56.4904 55.3646L61.2812 61.9134L59.765 63.1622L58.8488 62.1896L58.9902 61.2764L55.6766 64.4715L54.0589 64.5562L50.4295 61.7251L50.6723 62.6181L49.8561 63.6815L48.2176 62.598L52.3044 55.584L51.7325 55.7627L51.8232 40.3401L51.1923 56.5481L47.5811 62.7057L50.2479 64.4518L51.1476 63.046L54.1101 65.5337L55.7279 65.4489L58.4208 62.6649L59.4558 63.9692L61.9254 61.954L57.6904 56.2075Z" fill="#D19271"/>
<path d="M52.055 61.0513L53.7042 61.9517L55.7959 61.8826L57.4738 61.0106L57.2094 59.8348L54.7683 59.5572L52.1358 60.1413L52.055 61.0513Z" fill="#F8D5C3"/>
<path d="M70.1907 23.3515L63.3773 31.3465L54.4219 35.8714L61.7139 29.2707L52.46 35.839C52.46 35.839 46.4958 38.1118 46.8932 37.9558C47.2905 37.7998 58.2232 28.4398 58.2232 28.4398L46.6418 35.7384L40.6634 37.7415L45.9506 32.8681L54.3147 23.5076L46.7459 29.9876L41.4941 35.535L43.3576 31.1114L47.1972 26.9898L41.4702 31.2103L35.8669 37.7901L32.8283 45.5873L33.55 38.7226L37.7557 31.2698L31.9605 39.3467L31.5579 47.1409L31.6874 54.7721L28.1595 45.494C28.1595 45.494 28.8637 53.771 29.1651 54.3636C29.4701 55.0235 31.7422 63.5563 31.7422 63.5563L27.6144 55.7291L28.9149 62.4878L24.2199 52.8653L23.033 45.6951L21.6702 48.0647C21.6702 48.0647 19.7538 34.7142 19.8675 34.3027C19.9811 33.8912 23.077 23.3197 23.077 23.3197L21.1434 23.8266L25.363 17.9276L33.3576 10.5466L29.4833 11.4256L37.4383 7.15591L51.0657 4.07598L58.3349 4.7765L51.2188 1.8374L61.6166 4.19896L68.3848 8.23777L71.4314 12.2013L74.7058 12.7732L82.2652 16.4326L87.3579 24.6147L84.2115 22.6167L87.2505 29.0139L88.2516 41.6688L86.4431 38.1136L86.8964 41.6047L87.7433 46.1566L84.9343 42.8566L83.4434 46.6523L81.7317 53.9744L81.4715 43.8492L80.3346 35.0541L75.0356 29.3837L76.4894 32.6195L70.9066 26.6936L70.1907 23.3515Z" fill="#3B3128"/>
<path d="M70.1372 18.4879L63.4089 26.8165L57.3805 30.4444L62.6715 24.3542L52.6408 30.2873L48.4648 31.858L53.475 28.1482L61.502 18.8053C61.502 18.8053 50.9997 23.4788 50.3398 23.7838C49.6798 24.0887 40.7559 30.5046 40.7559 30.5046L48.0659 22.9567L35.8245 30.5602L30.6112 38.1335L29.7977 43.2455L28.9264 36.9375L34.4343 28.5377L44.9763 20.7528L34.4104 24.2131L28.3638 30.0725L33.9642 20.8568L45.9282 15.7011L37.9317 15.3091L34.1319 16.3193L38.5387 13.993L51.7294 12.8961L47.1677 9.68799L40.7037 10.1619L49.1122 8.09904L55.7959 9.23581L53.4266 6.58868L60.9721 8.69416L66.3709 12.3992L63.6613 8.41804L61.0507 6.3243L66.3506 8.14192L71.05 13.979L70.1372 18.4879ZM72.4229 14.3802L71.8789 19.4781L74.1164 24.7683L82.0046 33.4123L83.0884 41.1962L83.8778 33.0437L86.6657 35.9393L84.7371 30.0922L79.4277 22.9353L85.1706 26.7575L79.5846 19.4798L82.6745 20.3994L79.9861 16.8227L72.4229 14.3802Z" fill="#433931"/>
<path d="M68.7111 17.0755L63.1258 22.708L56.959 26.2756L63.0339 20.9554L68.7111 17.0755ZM65.7493 14.7298L57.1356 14.1673L43.3765 18.606C43.3765 18.606 56.9295 15.3948 57.5362 15.363C58.1429 15.3312 65.7493 14.7298 65.7493 14.7298ZM26.1631 49.9924L25.3571 37.192L27.7958 30.8457L23.9912 36.9256L26.1631 49.9924Z" fill="#4A423A"/>
</svg>
